<svg width="69" height="71" viewBox="0 0 69 71" fill="none" xmlns="http://www.w3.org/2000/svg">
<path d="M27.0986 55.8447H30.8682L34.3037 66.6631H34.7177L38.1532 55.8447H41.9118L36.9729 70.9999H32.0376L27.0986 55.8447Z" fill="#24446D"/>
<path d="M15.0239 55.8447H25.3303V58.9812H18.4594V61.909H24.9018V64.9393H18.4594V67.8672H25.3303V70.9999H15.0239V55.8447Z" fill="#24446D"/>
<path d="M53.9871 70.9999H43.6807V67.8525H50.5516V64.9247H44.1092V61.8944H50.5516V58.9665H43.6807V55.8301H53.9871V70.9999Z" fill="#24446D"/>
<path d="M0 55.8447H7.08521C9.99047 55.8447 12.0242 57.8979 12.0242 61.038C12.0242 63.3949 10.971 64.5624 9.91784 65.2138C9.28055 65.5901 8.57131 65.8258 7.83695 65.9055L12.4527 70.9999H8.16016L3.864 66.1324H3.43547V70.9999H0V55.8447ZM6.87095 62.985C7.83695 62.985 8.58868 62.253 8.58868 61.038C8.58868 59.8229 7.83695 59.091 6.87095 59.091H3.43547V62.985H6.87095Z" fill="#24446D"/>
<path d="M68.9999 70.9997H65.5644V66.1322H65.1359L60.8506 70.9997H56.5581L61.1738 65.9162C60.4384 65.8361 59.7281 65.6004 59.0893 65.2245C58.0398 64.5731 56.9866 63.3946 56.9866 61.0487C56.9866 57.9086 59.0276 55.8555 61.9256 55.8555H68.9999V70.9997ZM65.5644 62.9957V59.0907H62.1289C61.1629 59.0907 60.4112 59.8227 60.4112 61.0377C60.4112 62.2528 61.1629 62.9847 62.1289 62.9847L65.5644 62.9957Z" fill="#24446D"/>
<path d="M29.8697 15.7371H46.3063C47.2749 15.7531 48.2176 16.0552 49.0175 16.606C49.8174 17.1567 50.4393 17.9319 50.8063 18.8355C51.1732 19.739 51.2689 20.7312 51.0816 21.6891C50.8943 22.647 50.4323 23.5284 49.7526 24.2242L48.7104 25.2709L59.6705 35.5L60.1716 35.9575L60.7854 35.3426C63.6536 32.4545 65.6095 28.7755 66.4067 24.7691C67.2038 20.7627 66.8065 16.6082 65.2648 12.829C63.7232 9.04974 61.1061 5.81486 57.7433 3.5319C54.3806 1.24894 50.4226 0.0200284 46.368 0L0 0V51.9691H15.594V24.9415L44.3343 51.9691H68.7058L29.8697 15.7371Z" fill="#295BE5"/>
</svg>
