<svg width="69" height="52" viewBox="0 0 69 52" fill="none" xmlns="http://www.w3.org/2000/svg">
<g clip-path="url(#clip0_1_40)">
<path d="M29.9976 15.7476H46.5009C47.474 15.7629 48.4212 16.0647 49.2251 16.6155C50.0289 17.1664 50.6541 17.9421 51.023 18.8464C51.392 19.7507 51.4884 20.7438 51.3005 21.7027C51.1125 22.6615 50.6484 23.5439 49.9656 24.2403L48.9189 25.2877L59.9259 35.5236L60.4292 35.9814L61.0456 35.3662C63.9261 32.4761 65.8904 28.7947 66.691 24.7856C67.4915 20.7766 67.0925 16.6193 65.5443 12.8375C63.996 9.05576 61.3677 5.81873 57.9906 3.53425C54.6134 1.24977 50.6385 0.0200418 46.5665 0L0 0V52.0037H15.6608V24.9581L44.5241 52.0037H69L29.9976 15.7476Z" fill="#295BE5"/>
</g>
<defs>
<clipPath id="clip0_1_40">
<rect width="69" height="52" fill="white"/>
</clipPath>
</defs>
</svg>