<svg width="69" height="71" viewBox="0 0 69 71" fill="none" xmlns="http://www.w3.org/2000/svg">
<path d="M27.0988 55.8447H30.8684L34.3039 66.6631H34.7179L38.1533 55.8447H41.912L36.9731 70.9999H32.0378L27.0988 55.8447Z" fill="#24446D"/>
<path d="M15.0239 55.8447H25.3303V58.9812H18.4593V61.909H24.9018V64.9393H18.4593V67.8672H25.3303V70.9999H15.0239V55.8447Z" fill="#24446D"/>
<path d="M53.9871 70.9999H43.6807V67.8525H50.5516V64.9247H44.1092V61.8944H50.5516V58.9665H43.6807V55.8301H53.9871V70.9999Z" fill="#24446D"/>
<path d="M0 55.8447H7.08521C9.99047 55.8447 12.0242 57.8979 12.0242 61.038C12.0242 63.3949 10.971 64.5624 9.91784 65.2138C9.28055 65.5901 8.57131 65.8258 7.83695 65.9055L12.4527 70.9999H8.16016L3.864 66.1324H3.43547V70.9999H0V55.8447ZM6.87095 62.985C7.83695 62.985 8.58868 62.253 8.58868 61.038C8.58868 59.8229 7.83695 59.091 6.87095 59.091H3.43547V62.985H6.87095Z" fill="#24446D"/>
<path d="M69 70.9999H65.5645V66.1324H65.136L60.8507 70.9999H56.5582L61.174 65.9165C60.4386 65.8363 59.7282 65.6006 59.0894 65.2248C58.0399 64.5733 56.9868 63.3949 56.9868 61.049C56.9868 57.9089 59.0277 55.8557 61.9257 55.8557H69V70.9999ZM65.5645 62.996V59.091H62.1291C61.1631 59.091 60.4113 59.8229 60.4113 61.038C60.4113 62.253 61.1631 62.985 62.1291 62.985L65.5645 62.996Z" fill="#24446D"/>
<path d="M29.8697 15.7371H46.3063C47.2749 15.7531 48.2176 16.0552 49.0175 16.606C49.8174 17.1567 50.4393 17.9319 50.8063 18.8355C51.1732 19.739 51.2689 20.7312 51.0816 21.6891C50.8943 22.647 50.4323 23.5284 49.7526 24.2242L48.7104 25.2709L59.6705 35.5L60.1716 35.9575L60.7854 35.3426C63.6536 32.4545 65.6095 28.7755 66.4067 24.7691C67.2038 20.7627 66.8065 16.6082 65.2648 12.829C63.7232 9.04974 61.1061 5.81486 57.7433 3.5319C54.3806 1.24894 50.4226 0.0200284 46.368 0L0 0V51.9691H15.594V24.9415L44.3343 51.9691H68.7058L29.8697 15.7371Z" fill="#295BE5"/>
</svg>
