<svg width="143" height="21" viewBox="0 0 143 21" fill="none" xmlns="http://www.w3.org/2000/svg">
<path d="M82.4395 0H87.8662L92.8216 15H93.4428L98.4165 0H103.843L96.7099 21H89.5728L82.4395 0Z" fill="#24446D"/>
<path d="M64.9897 0H79.8814V4.34982H69.9561V8.39929H79.2638V12.6007H69.9561V16.6502H79.8814V21H64.9897V0Z" fill="#24446D"/>
<path d="M121.289 21H106.398V16.6502H116.327V12.6007H107.019V8.39929H116.327V4.34982H106.398V0H121.289V21Z" fill="#24446D"/>
<path d="M43.2827 0H53.515C57.7066 0 60.663 2.84806 60.663 7.19788C60.663 10.47 59.1428 12.0883 57.6225 12.9894C56.7008 13.513 55.6743 13.8406 54.6113 13.9505L61.2806 21.0177H55.0681L48.8557 14.2686H48.2381V21.0177H43.2827V0ZM53.208 9.89399C54.604 9.89399 55.6894 8.87279 55.6894 7.19081C55.6894 5.50883 54.5931 4.49117 53.208 4.49117H48.2381V9.89399H53.208Z" fill="#24446D"/>
<path d="M143 21H138.037V14.2509H137.405L131.193 21H124.98L131.649 13.9329C130.588 13.8225 129.563 13.4948 128.642 12.9717C127.122 12.0707 125.601 10.4523 125.601 7.18021C125.627 2.84806 128.576 0 132.764 0H142.996L143 21ZM138.037 9.89399V4.49823H133.071C131.675 4.49823 130.59 5.51943 130.59 7.19788C130.59 8.87633 131.686 9.90106 133.071 9.90106L138.037 9.89399Z" fill="#24446D"/>
<path d="M12.5199 6.32155H19.4121C19.8217 6.32215 20.2219 6.44011 20.5622 6.66052C20.9025 6.88094 21.1676 7.19392 21.324 7.55993C21.4804 7.92595 21.5211 8.32858 21.441 8.71696C21.3609 9.10534 21.1635 9.46206 20.8739 9.74205L20.439 10.1661L25.0143 14.2756L25.2263 14.4594L25.4821 14.212C26.6836 13.0503 27.5028 11.5707 27.8365 9.95972C28.1702 8.34869 28.0034 6.67822 27.3571 5.15867C26.7108 3.63913 25.614 2.33847 24.2048 1.42049C22.7955 0.502514 21.1369 0.00826899 19.4377 0L0 0V20.9011H6.53771V10.0318L18.5972 20.9011H28.8295L12.5199 6.32155Z" fill="#295BE5"/>
</svg>
