<svg width="142" height="22" viewBox="0 0 142 22" fill="none" xmlns="http://www.w3.org/2000/svg">
<g clip-path="url(#clip0_1_137)">
<path d="M81.8629 0H87.2517L92.1724 15.7143H92.7893L97.7282 0H103.117L96.0335 22H88.9464L81.8629 0Z" fill="#295BE5"/>
<path d="M64.5352 0H79.3227V4.55696H69.4668V8.79926H78.7094V13.2007H69.4668V17.443H79.3227V22H64.5352V0Z" fill="#295BE5"/>
<path d="M120.441 22H105.654V17.443H115.513V13.2007H106.27V8.79926H115.513V4.55696H105.654V0H120.441V22Z" fill="#295BE5"/>
<path d="M42.9799 0H53.1407C57.3029 0 60.2387 2.98368 60.2387 7.54064C60.2387 10.9685 58.7291 12.664 57.2195 13.6079C56.3042 14.1564 55.2848 14.4997 54.2293 14.6148L60.8519 22.0185H54.6829L48.5139 14.948H47.9006V22.0185H42.9799V0ZM52.8358 10.3651C54.2221 10.3651 55.2998 9.29531 55.2998 7.53323C55.2998 5.77116 54.2112 4.70503 52.8358 4.70503H47.9006V10.3651H52.8358Z" fill="#295BE5"/>
<path d="M142 22H137.072V14.9295H136.444L130.275 22H124.106L130.729 14.5963C129.675 14.4807 128.656 14.1374 127.742 13.5894C126.233 12.6455 124.723 10.95 124.723 7.52213C124.749 2.98368 127.677 0 131.836 0H141.996L142 22ZM137.072 10.3651V4.71243H132.14C130.754 4.71243 129.676 5.78227 129.676 7.54064C129.676 9.29901 130.765 10.3725 132.14 10.3725L137.072 10.3651Z" fill="#295BE5"/>
<path d="M12.4324 6.62258H19.2764C19.6831 6.62321 20.0805 6.74678 20.4184 6.97769C20.7563 7.2086 21.0195 7.53648 21.1749 7.91993C21.3302 8.30337 21.3706 8.72518 21.2911 9.13205C21.2115 9.53893 21.0156 9.91264 20.7279 10.206L20.2961 10.6502L24.8394 14.9554L25.0499 15.1479L25.3039 14.8888C26.497 13.6717 27.3105 12.1217 27.6418 10.434C27.9732 8.74624 27.8075 6.99623 27.1658 5.40433C26.524 3.81242 25.4349 2.44983 24.0355 1.48814C22.6361 0.526444 20.9891 0.00866275 19.3018 0L0 0V21.8963H6.49199V10.5095L18.4671 21.8963H28.6279L12.4324 6.62258Z" fill="#295BE5"/>
</g>
<defs>
<clipPath id="clip0_1_137">
<rect width="142" height="22" fill="white"/>
</clipPath>
</defs>
</svg>
