<svg width="142" height="21" viewBox="0 0 142 21" fill="none" xmlns="http://www.w3.org/2000/svg">
<g clip-path="url(#clip0_291_142)">
<path d="M81.863 0H87.2519L92.1726 15H92.7895L97.7283 0H103.117L96.0336 21H88.9465L81.863 0Z" fill="white"/>
<path d="M64.5352 0H79.3227V4.34982H69.4667V8.39929H78.7094V12.6007H69.4667V16.6502H79.3227V21H64.5352V0Z" fill="white"/>
<path d="M120.441 21H105.654V16.6502H115.513V12.6007H106.27V8.39929H115.513V4.34982H105.654V0H120.441V21Z" fill="white"/>
<path d="M42.98 0H53.1407C57.303 0 60.2387 2.84806 60.2387 7.19788C60.2387 10.47 58.7291 12.0883 57.2195 12.9894C56.3042 13.513 55.2849 13.8406 54.2294 13.9505L60.852 21.0177H54.683L48.514 14.2686H47.9007V21.0177H42.98V0ZM52.8359 9.89399C54.2221 9.89399 55.2999 8.87279 55.2999 7.19081C55.2999 5.50883 54.2112 4.49117 52.8359 4.49117H47.9007V9.89399H52.8359Z" fill="white"/>
<path d="M142 21H137.072V14.2509H136.444L130.275 21H124.106L130.729 13.9329C129.675 13.8225 128.656 13.4948 127.742 12.9717C126.233 12.0707 124.723 10.4523 124.723 7.18021C124.749 2.84806 127.677 0 131.836 0H141.996L142 21ZM137.072 9.89399V4.49823H132.14C130.754 4.49823 129.676 5.51943 129.676 7.19788C129.676 8.87633 130.765 9.90106 132.14 9.90106L137.072 9.89399Z" fill="white"/>
<path d="M12.4324 6.32155H19.2764C19.6831 6.32215 20.0805 6.44011 20.4184 6.66052C20.7563 6.88094 21.0195 7.19392 21.1749 7.55993C21.3302 7.92595 21.3706 8.32858 21.2911 8.71696C21.2115 9.10534 21.0156 9.46206 20.7279 9.74205L20.2961 10.1661L24.8394 14.2756L25.0499 14.4594L25.3039 14.212C26.497 13.0503 27.3105 11.5707 27.6418 9.95972C27.9732 8.34869 27.8075 6.67822 27.1658 5.15867C26.524 3.63913 25.4349 2.33847 24.0355 1.42049C22.6361 0.502514 20.9891 0.00826899 19.3018 0L0 0V20.9011H6.49199V10.0318L18.4671 20.9011H28.6279L12.4324 6.32155Z" fill="#295BE5"/>
</g>
<defs>
<clipPath id="clip0_291_142">
<rect width="142" height="21" fill="white"/>
</clipPath>
</defs>
</svg>
